 <svg xmlns="http://www.w3.org/2000/svg" viewBox="0 0 700 553" preserveAspectRatio="xMidYMid meet" width="500pt" height="395pt" version="1.0">
<metadata>
Created by potrace 1.12, written by Peter Selinger 2001-2015
</metadata>
<g fill="#000000" stroke="none" transform="translate(0 553) scale(0.1 -0.1)">
<path d="M 1169 5133 c -25 -27 -62 -68 -82 -93 c -21 -25 -49 -58 -63 -75 c -79 -94 -104 -128 -104 -141 c 0 -7 -16 -31 -35 -53 c -19 -21 -35 -43 -35 -49 c 0 -6 -13 -26 -29 -45 c -16 -18 -37 -52 -46 -75 c -10 -24 -26 -47 -36 -53 c -10 -5 -24 -29 -30 -53 c -6 -25 -22 -55 -35 -67 c -13 -12 -29 -41 -35 -63 c -6 -22 -24 -59 -39 -81 c -15 -22 -31 -57 -34 -77 c -4 -21 -18 -51 -31 -67 c -14 -16 -30 -52 -35 -82 c -6 -29 -22 -70 -35 -90 c -15 -21 -30 -61 -36 -99 c -5 -35 -21 -83 -36 -107 c -17 -30 -28 -69 -35 -126 c -5 -45 -21 -109 -35 -142 c -20 -46 -28 -88 -35 -185 c -5 -69 -18 -170 -30 -225 c -20 -89 -22 -127 -21 -345 c 1 -142 6 -258 12 -273 c 16 -41 29 -136 40 -279 c 8 -100 15 -140 35 -185 c 15 -33 30 -94 36 -141 c 6 -56 17 -96 35 -125 c 14 -25 29 -71 34 -110 c 7 -47 17 -76 34 -96 c 14 -17 29 -54 36 -89 c 6 -33 21 -72 32 -86 c 12 -15 29 -54 40 -88 c 10 -33 27 -70 38 -82 c 10 -11 25 -41 31 -66 c 6 -25 22 -56 35 -70 c 13 -14 28 -43 34 -66 c 6 -22 22 -51 35 -63 c 14 -13 28 -37 31 -53 c 4 -16 20 -44 35 -62 c 16 -18 32 -44 35 -59 c 4 -14 18 -37 31 -50 c 13 -13 32 -44 43 -69 c 11 -26 26 -50 34 -55 c 8 -4 24 -27 36 -51 c 12 -23 26 -42 31 -42 c 5 0 19 -19 31 -43 c 12 -23 36 -59 53 -80 c 73 -89 109 -127 118 -127 c 5 0 24 15 42 33 c 18 17 48 45 67 60 c 19 15 56 46 82 68 c 27 21 52 39 58 39 c 5 0 26 15 46 33 c 21 17 47 37 58 43 c 12 7 21 24 23 44 c 3 28 -3 39 -32 66 c -20 18 -36 40 -36 48 c 0 8 -11 23 -24 33 c -13 11 -33 38 -45 60 c -11 23 -32 53 -46 67 c -14 14 -25 31 -25 39 c 0 7 -13 26 -30 42 c -16 15 -35 44 -41 64 c -7 20 -25 51 -40 69 c -16 18 -29 39 -29 46 c 0 7 -13 30 -30 51 c -16 21 -34 55 -40 75 c -6 21 -17 43 -26 51 c -20 17 -44 63 -44 87 c 0 11 -14 36 -30 57 c -17 21 -33 56 -36 77 c -4 21 -20 58 -35 82 c -16 24 -34 67 -39 97 c -6 29 -21 69 -35 89 c -15 21 -28 62 -35 103 c -6 38 -22 90 -36 117 c -18 35 -28 74 -34 139 c -5 55 -19 120 -37 168 l -28 78 l 0 390 l 0 390 l 28 83 c 16 46 33 124 38 174 c 6 65 16 101 34 132 c 14 24 29 70 34 108 c 8 59 16 79 58 152 c 7 11 13 31 13 43 c 0 30 18 74 40 98 c 10 11 25 45 34 76 c 8 30 24 63 35 73 c 10 9 24 37 31 61 c 7 25 19 50 28 57 c 8 7 27 40 42 73 c 15 33 37 69 49 79 c 11 11 21 25 21 33 c 0 7 14 27 30 45 c 17 17 39 51 50 75 c 10 24 24 43 29 43 c 6 0 18 15 27 33 c 9 17 27 43 40 57 c 13 14 53 60 90 103 c 62 73 65 80 55 105 c -17 41 -314 342 -337 342 c -11 0 -40 -21 -65 -47 Z" />
<path d="M 5696 5164 c -9 -11 -79 -84 -156 -163 c -131 -134 -140 -146 -140 -182 c 0 -33 5 -41 30 -54 c 17 -9 30 -20 30 -25 c 0 -6 15 -27 34 -47 c 18 -21 39 -49 46 -63 c 13 -25 30 -47 100 -133 c 22 -27 40 -54 40 -60 c 0 -7 16 -32 35 -56 c 19 -24 35 -50 35 -56 c 0 -7 15 -31 34 -54 c 18 -22 36 -55 40 -74 c 3 -19 17 -44 31 -57 c 13 -13 31 -46 39 -75 c 9 -28 24 -59 35 -69 c 11 -10 25 -41 31 -69 c 6 -29 22 -68 36 -88 c 14 -20 29 -61 34 -94 c 5 -32 21 -76 35 -97 c 18 -27 29 -61 36 -118 c 6 -48 19 -98 34 -127 c 21 -40 27 -71 35 -173 c 5 -69 13 -150 19 -180 c 36 -208 38 -413 5 -566 c -8 -38 -19 -127 -24 -199 c -7 -106 -14 -140 -34 -186 c -15 -31 -31 -91 -36 -133 c -6 -50 -18 -92 -35 -120 c -14 -24 -30 -70 -36 -102 c -6 -32 -21 -76 -35 -96 c -13 -21 -29 -61 -35 -88 c -6 -28 -22 -64 -36 -81 c -14 -16 -30 -49 -35 -72 c -5 -23 -20 -53 -32 -67 c -13 -14 -31 -48 -40 -77 c -10 -28 -24 -57 -33 -65 c -9 -7 -24 -32 -35 -57 c -10 -24 -30 -57 -43 -73 c -14 -16 -25 -36 -25 -43 c 0 -8 -13 -29 -29 -47 c -15 -18 -38 -51 -50 -73 c -25 -46 -59 -97 -93 -138 c -13 -16 -30 -39 -38 -51 c -8 -13 -30 -42 -47 -66 c -18 -23 -37 -59 -43 -79 c -9 -33 -8 -38 16 -56 c 14 -11 39 -33 56 -48 c 17 -15 43 -34 58 -42 c 15 -8 30 -21 33 -29 c 3 -8 23 -27 44 -41 c 21 -14 69 -47 107 -74 c 38 -27 75 -47 81 -44 c 7 2 20 22 30 43 c 10 21 28 49 41 61 c 13 12 24 28 24 35 c 0 7 16 27 35 45 c 19 19 35 39 35 45 c 0 7 16 31 35 54 c 19 23 35 48 35 56 c 0 7 13 28 29 46 c 15 18 38 51 49 74 c 11 22 27 46 36 53 c 8 7 20 29 27 49 c 6 20 22 47 35 60 c 13 12 28 39 34 60 c 5 21 21 49 34 61 c 13 12 29 42 35 65 c 6 23 23 59 39 79 c 16 20 32 54 36 76 c 3 22 17 53 31 69 c 13 16 29 51 35 78 c 6 27 22 66 36 87 c 14 21 29 64 35 95 c 6 31 21 74 35 94 c 15 24 28 64 34 110 c 6 40 22 95 36 121 c 18 35 27 74 34 145 c 5 56 20 128 35 172 c 25 69 28 95 37 336 c 8 180 8 336 1 505 c -10 220 -13 252 -37 322 c -14 43 -30 120 -35 172 c -7 70 -16 105 -35 137 c -15 27 -28 72 -35 121 c -7 52 -19 89 -36 115 c -14 21 -30 64 -36 97 c -6 34 -21 71 -34 87 c -13 15 -28 50 -34 78 c -6 29 -22 66 -35 83 c -13 18 -29 49 -34 69 c -6 20 -21 52 -35 70 c -13 18 -29 49 -36 68 c -6 19 -22 46 -35 60 c -14 14 -29 44 -35 67 c -7 24 -20 47 -32 54 c -11 6 -29 30 -39 54 c -10 23 -23 46 -29 50 c -6 3 -23 29 -37 56 c -13 28 -32 53 -40 56 c -8 3 -24 23 -35 44 c -11 22 -23 39 -27 39 c -5 0 -18 18 -30 39 c -22 39 -54 78 -122 150 c -19 21 -39 45 -45 54 c -16 27 -70 33 -89 11 Z" />
<path d="M 3325 4909 c -49 -4 -142 -12 -205 -17 c -92 -8 -126 -15 -165 -35 c -28 -15 -81 -30 -122 -36 c -51 -6 -82 -17 -105 -35 c -19 -14 -53 -28 -76 -32 c -24 -4 -60 -19 -81 -35 c -22 -15 -57 -33 -79 -38 c -22 -6 -46 -19 -53 -28 c -8 -9 -37 -26 -64 -39 c -28 -12 -57 -29 -65 -39 c -7 -9 -27 -23 -43 -31 c -32 -17 -106 -69 -152 -108 c -40 -34 -283 -276 -318 -318 c -65 -76 -107 -133 -107 -145 c 0 -7 -15 -30 -34 -50 c -18 -21 -37 -48 -40 -61 c -4 -12 -18 -35 -31 -50 c -12 -15 -27 -44 -33 -65 c -6 -21 -22 -53 -36 -72 c -14 -18 -31 -54 -37 -81 c -7 -27 -23 -65 -36 -85 c -13 -20 -28 -64 -34 -99 c -5 -34 -21 -84 -35 -111 c -19 -39 -28 -79 -39 -192 c -8 -78 -19 -158 -25 -177 c -15 -53 -12 -362 4 -450 c 8 -41 19 -125 25 -186 c 8 -85 16 -122 35 -160 c 14 -27 30 -77 34 -111 c 6 -40 18 -75 35 -100 c 14 -21 31 -61 37 -90 c 6 -28 20 -59 30 -68 c 11 -10 27 -40 36 -69 c 9 -28 30 -66 45 -84 c 16 -18 29 -39 29 -47 c 0 -7 11 -26 24 -42 c 13 -15 31 -44 41 -63 c 10 -19 30 -47 44 -61 c 14 -15 64 -73 111 -129 c 47 -55 135 -144 195 -196 c 61 -52 124 -107 140 -122 c 17 -16 42 -34 58 -42 c 15 -7 27 -17 27 -22 c 0 -5 24 -20 52 -32 c 29 -13 64 -35 76 -49 c 13 -14 39 -28 58 -31 c 18 -4 46 -18 62 -31 c 16 -13 50 -29 76 -36 c 26 -6 61 -23 76 -36 c 19 -16 51 -27 92 -34 c 35 -6 82 -21 106 -35 c 31 -18 67 -28 135 -35 c 50 -5 112 -17 137 -25 c 91 -31 204 -44 375 -44 c 180 0 259 9 365 41 c 36 10 107 23 159 29 c 73 7 101 14 130 34 c 21 15 62 29 98 35 c 39 6 75 19 95 35 c 18 13 50 28 71 31 c 21 4 51 18 67 31 c 15 14 48 31 71 39 c 24 9 53 24 64 35 c 11 10 38 27 60 36 c 22 9 55 28 73 43 c 18 14 49 40 70 56 c 20 17 55 42 77 56 c 49 32 245 226 300 298 c 22 28 57 72 77 96 c 20 24 39 53 43 64 c 3 10 12 22 20 25 c 8 3 26 30 39 61 c 14 30 29 55 35 55 c 5 0 17 21 27 47 c 9 27 26 58 36 69 c 11 12 28 50 38 84 c 10 34 28 73 40 85 c 13 14 24 46 31 86 c 6 35 21 82 34 105 c 18 30 28 72 39 160 c 8 65 23 144 34 174 c 39 112 35 534 -7 655 c -11 33 -25 102 -30 153 c -8 69 -17 105 -35 136 c -14 24 -30 71 -35 105 c -11 65 -14 75 -41 106 c -10 11 -23 43 -30 71 c -6 30 -22 62 -36 75 c -13 12 -27 37 -30 56 c -4 19 -22 52 -40 74 c -19 23 -34 47 -34 55 c 0 7 -13 29 -30 47 c -16 19 -30 40 -30 45 c 0 12 -46 68 -148 180 c -31 35 -61 70 -65 78 c -4 7 -65 63 -135 123 c -70 60 -138 121 -152 134 c -14 13 -46 33 -72 45 c -27 11 -48 26 -48 32 c 0 5 -24 21 -52 34 c -29 12 -59 30 -67 39 c -7 9 -32 22 -54 28 c -23 6 -54 21 -69 34 c -15 13 -51 28 -80 35 c -29 6 -69 22 -88 35 c -23 16 -65 30 -115 39 c -44 7 -99 24 -123 36 c -30 16 -71 25 -150 31 c -368 32 -407 33 -577 18 Z m 351 -499 c 50 -5 112 -19 138 -30 c 26 -11 86 -24 134 -30 c 63 -8 97 -18 122 -35 c 19 -13 57 -29 84 -35 c 26 -6 63 -22 81 -36 c 18 -14 50 -30 69 -35 c 20 -6 46 -20 59 -33 c 12 -13 39 -29 59 -36 c 21 -6 46 -22 56 -34 c 9 -13 28 -29 41 -36 c 13 -6 38 -25 55 -41 c 70 -65 203 -199 231 -233 c 17 -20 47 -54 68 -77 c 20 -22 37 -46 37 -54 c 0 -8 13 -29 29 -47 c 15 -18 33 -49 40 -69 c 6 -20 22 -46 36 -59 c 14 -13 28 -43 34 -72 c 6 -27 22 -64 35 -81 c 16 -21 29 -56 35 -99 c 6 -36 23 -92 38 -124 l 28 -59 l 0 -335 l 0 -335 l -27 -60 c -15 -33 -32 -89 -37 -124 c -6 -35 -18 -75 -28 -89 c -33 -46 -43 -67 -43 -94 c 0 -16 -12 -42 -29 -60 c -15 -18 -34 -51 -41 -73 c -7 -22 -25 -53 -40 -70 c -15 -16 -31 -40 -35 -53 c -3 -12 -15 -27 -26 -32 c -10 -6 -28 -29 -39 -50 c -24 -48 -219 -246 -277 -283 c -23 -14 -53 -38 -67 -52 c -14 -14 -31 -25 -38 -25 c -6 0 -26 -13 -43 -28 c -16 -16 -51 -37 -77 -46 c -27 -10 -48 -22 -48 -27 c 0 -13 -50 -35 -94 -42 c -22 -4 -51 -17 -65 -31 c -19 -18 -45 -28 -93 -35 c -36 -6 -89 -23 -116 -37 c -45 -23 -66 -27 -235 -36 c -125 -7 -243 -7 -361 0 c -155 9 -182 13 -229 36 c -30 14 -82 30 -116 35 c -39 6 -79 21 -106 39 c -25 16 -62 32 -83 35 c -22 4 -48 17 -62 32 c -13 14 -41 30 -62 36 c -21 5 -53 23 -72 39 c -18 17 -39 30 -44 30 c -6 0 -27 15 -46 33 c -19 17 -62 55 -96 82 c -34 28 -106 102 -161 165 c -55 63 -113 129 -129 147 c -17 18 -30 39 -30 47 c 0 8 -11 28 -25 44 c -13 16 -34 51 -45 78 c -12 27 -30 58 -40 69 c -10 11 -24 43 -30 70 c -6 28 -22 66 -35 85 c -16 23 -27 61 -34 113 c -6 43 -20 95 -31 117 c -53 103 -53 586 -1 688 c 11 21 24 74 30 117 c 8 54 19 91 36 115 c 13 19 29 57 35 84 c 6 27 22 62 35 78 c 14 16 29 46 35 67 c 5 21 23 52 40 69 c 16 18 30 38 30 46 c 0 8 16 33 35 56 c 19 23 35 46 35 51 c 0 4 17 26 38 48 c 20 21 43 45 49 53 c 55 59 80 83 160 156 c 82 75 122 104 188 136 c 28 13 56 33 62 45 c 7 11 32 25 55 32 c 23 6 55 22 71 35 c 16 13 41 27 55 30 c 15 3 38 8 52 10 c 14 3 41 16 61 30 c 25 17 59 27 118 34 c 45 6 105 20 132 31 c 92 36 294 48 475 29 Z" />
<path d="M 2684 3827 c -12 -7 -14 -165 -14 -1106 c 0 -867 3 -1101 13 -1108 c 7 -6 108 -10 250 -10 c 193 0 241 3 253 14 c 12 12 14 72 14 344 c 0 308 1 330 19 348 c 16 16 40 19 202 23 c 143 4 202 10 265 27 c 45 11 111 25 147 30 c 45 6 77 18 100 35 c 18 14 48 29 66 32 c 17 4 39 16 49 28 c 9 12 31 31 47 43 c 28 20 62 54 133 130 c 17 17 33 45 37 62 c 3 16 13 35 21 42 c 8 7 19 20 25 30 c 11 21 59 295 59 339 c 0 68 -50 305 -70 330 c -11 14 -26 39 -33 55 c -8 17 -35 50 -61 75 c -26 25 -61 58 -76 73 c -16 16 -46 33 -67 39 c -21 5 -53 21 -71 35 c -22 16 -55 28 -99 34 c -36 5 -89 16 -117 23 c -28 8 -89 19 -136 25 c -98 13 -934 20 -956 8 Z m 933 -413 c 15 -11 43 -29 61 -38 c 105 -54 187 -238 153 -347 c -34 -114 -53 -153 -93 -194 c -24 -25 -48 -45 -54 -45 c -5 0 -30 -15 -54 -32 l -44 -33 l -172 -3 c -164 -3 -173 -3 -193 17 c -20 20 -21 30 -21 339 c 0 277 2 321 16 341 c 16 23 18 23 194 19 c 162 -3 181 -5 207 -24 Z" />
</g>
</svg>